<?xml version="1.0" encoding="utf-8"?>
<!-- Generator: Adobe Illustrator 13.0.0, SVG Export Plug-In . SVG Version: 6.00 Build 14948)  -->
<!DOCTYPE svg PUBLIC "-//W3C//DTD SVG 1.0//EN" "http://www.w3.org/TR/2001/REC-SVG-20010904/DTD/svg10.dtd">
<svg version="1.0" id="Layer_1" xmlns="http://www.w3.org/2000/svg" xmlns:xlink="http://www.w3.org/1999/xlink" x="0px" y="0px"
	 width="99.213px" height="99.213px" viewBox="-0.5 -0.5 99.213 99.213" enable-background="new -0.5 -0.5 99.213 99.213"
	 xml:space="preserve">
<g id="_x34_1_ALU_RECYCLING_SYMBOL" xmlns:svg="http://www.w3.org/2000/svg" xmlns:inkscape="http://www.inkscape.org/namespaces/inkscape" xmlns:dc="http://purl.org/dc/elements/1.1/" sodipodi:version="0.32" xmlns:cc="http://web.resource.org/cc/" xmlns:sodipodi="http://inkscape.sourceforge.net/DTD/sodipodi-0.dtd" sodipodi:docname="Recycling-Code-41.svg" sodipodi:docbase="D:\Bilder\SVG" xmlns:rdf="http://www.w3.org/1999/02/22-rdf-syntax-ns#" inkscape:version="0.43">
	
		<sodipodi:namedview  id="base" inkscape:window-height="721" inkscape:pageshadow="2" inkscape:window-width="1024" inkscape:pageopacity="0.0" borderopacity="1.0" bordercolor="#666666" pagecolor="#ffffff" inkscape:zoom="3.74" inkscape:cx="50" inkscape:cy="50" inkscape:window-x="-4" inkscape:window-y="-4" inkscape:current-layer="svg2">
		</sodipodi:namedview>
	<g>
		<path d="M86.187,56.735l-11.979-20.75l-3.028,1.749V20.799l-4.306,2.485L58.196,8.26c-1.875-3.249-5.342-5.251-9.091-5.251
			c-3.753,0-7.22,2.002-9.095,5.249L28.032,29.009l3.029,1.75l-14.666,8.468l4.303,2.485l-8.672,15.023
			c-0.938,1.621-1.406,3.437-1.406,5.248c0,1.81,0.469,3.625,1.404,5.246c1.877,3.252,5.343,5.252,9.096,5.254h23.959v-3.5v-3.502
			H21.12c-1.252,0.002-2.406-0.664-3.031-1.75c-0.314-0.543-0.47-1.144-0.47-1.748c0-0.607,0.155-1.209,0.47-1.75l8.672-15.021
			l4.307,2.486L31.066,30.76l3.028,1.749l11.979-20.751c0.626-1.083,1.78-1.75,3.032-1.75c1.25,0,2.406,0.667,3.031,1.75
			l8.676,15.024l-4.308,2.486l14.67,8.466l-3.028,1.749l11.979,20.749c0.31,0.543,0.467,1.146,0.47,1.75
			c-0.003,0.605-0.156,1.209-0.472,1.752c-0.624,1.082-1.78,1.75-3.03,1.748H59.747v-4.973l-14.668,8.475l14.668,8.469v-4.969
			h17.348c3.75-0.002,7.217-2.002,9.092-5.252c0.938-1.625,1.408-3.439,1.406-5.25C87.595,60.17,87.124,58.354,86.187,56.735z"/>
		<g id="layer1_1_">
			<g enable-background="new    ">
				<path d="M48.039,48.432v3.848H44.64v-3.848h-6.348l-0.475-2.875l6.873-9.223h3.349v9.323h1.7v2.774L48.039,48.432L48.039,48.432
					z M44.665,40.758c-0.35,0.601-0.725,1.15-1.125,1.675l-2.398,3.225h3.498v-3.25c0-0.499,0.025-1.074,0.075-1.624L44.665,40.758z
					"/>
				<path d="M55.269,52.278V39.483l-2.824,0.25l0.274-3.174l6.148-0.551v16.271H55.269z"/>
			</g>
			<g enable-background="new    ">
				<path d="M36.872,94.854l-1.249-3.324h-5.249l-1.225,3.324h-3.648l6.273-16.071h2.674l6.273,16.071H36.872z M33.523,85.406
					c-0.175-0.45-0.351-1.05-0.5-1.625h-0.05c-0.125,0.575-0.325,1.175-0.5,1.625l-1.149,3.198h3.349L33.523,85.406z"/>
				<path d="M44.188,94.854V78.907h3.874v12.621h6.398v3.324H44.188V94.854z"/>
				<path d="M64.658,95.203c-3.8,0-6.898-2.249-6.898-5.798V78.907h3.874v10.146c0,1.625,1.225,2.75,3.074,2.75s3.1-1.125,3.1-2.75
					V78.907h3.773v10.498C71.581,92.954,68.481,95.203,64.658,95.203z"/>
			</g>
		</g>
	</g>
</g>
<g id="Editable_Text" display="none">
	<g id="layer1_2_" display="inline">
		<text transform="matrix(1 0 0 1 37.7329 52.2773)" font-family="'Agenda-Bold'" font-size="25" letter-spacing="1">41</text>
		<text transform="matrix(1 0 0 1 26.3457 94.9229)" font-family="'Agenda-Bold'" font-size="25" letter-spacing="1">ALU</text>
	</g>
</g>
</svg>
